<svg xmlns="http://www.w3.org/2000/svg" xmlns:xlink="http://www.w3.org/1999/xlink" width="1920" zoomAndPan="magnify" viewBox="0 0 1440 809.999993" height="1080" preserveAspectRatio="xMidYMid meet" version="1.0"><defs><clipPath id="f5324449b4"><path d="M 147 71 L 734.410156 71 L 734.410156 788 L 147 788 Z M 147 71 " clip-rule="nonzero"/></clipPath><clipPath id="b58f5f079a"><path d="M 0.160156 0.00390625 L 734.410156 0.00390625 L 734.410156 688 L 0.160156 688 Z M 0.160156 0.00390625 " clip-rule="nonzero"/></clipPath><clipPath id="9927c88c31"><path d="M 269 305 L 734.410156 305 L 734.410156 810 L 269 810 Z M 269 305 " clip-rule="nonzero"/></clipPath><clipPath id="69f7fbd387"><path d="M 0.160156 0.00390625 L 734.410156 0.00390625 L 734.410156 688 L 0.160156 688 Z M 0.160156 0.00390625 " clip-rule="nonzero"/></clipPath><clipPath id="14ef39b82b"><path d="M 9.414062 462 L 194 462 L 194 622 L 9.414062 622 Z M 9.414062 462 " clip-rule="nonzero"/></clipPath><clipPath id="1a89b4a395"><path d="M 26 538 L 209 538 L 209 696.488281 L 26 696.488281 Z M 26 538 " clip-rule="nonzero"/></clipPath><clipPath id="cae2ebc425"><path d="M 103 440.738281 L 194 440.738281 L 194 520 L 103 520 Z M 103 440.738281 " clip-rule="nonzero"/></clipPath></defs><g clip-path="url(#f5324449b4)"><path fill="#1a73e8" d="M 147.320312 238.242188 L 734.410156 787.90625 L 734.410156 621.246094 L 147.320312 71.609375 Z M 147.320312 238.242188 " fill-opacity="1" fill-rule="evenodd"/></g><g clip-path="url(#b58f5f079a)"><path fill="#1a73e8" d="M -0.00390625 0.0664062 L 734.410156 687.675781 L 734.410156 0.0664062 Z M -0.00390625 0.0664062 " fill-opacity="1" fill-rule="evenodd"/></g><g clip-path="url(#9927c88c31)"><path fill="#8e3ffc" d="M 734.410156 822.804688 L 269.441406 390.792969 L 269.441406 305.601562 L 734.410156 740.925781 Z M 734.410156 822.804688 " fill-opacity="1" fill-rule="evenodd"/></g><g clip-path="url(#69f7fbd387)"><path fill="#fac000" d="M 29.933594 0.0664062 L -0.00390625 0.0664062 L 734.410156 687.675781 L 734.410156 658.875 Z M 29.933594 0.0664062 " fill-opacity="1" fill-rule="evenodd"/></g><g clip-path="url(#14ef39b82b)"><path fill="#c8dcff" d="M 193.132812 541.773438 L 147.203125 621.324219 L 55.34375 621.324219 L 9.410156 541.773438 L 55.34375 462.21875 L 147.203125 462.21875 Z M 193.132812 541.773438 " fill-opacity="1" fill-rule="nonzero"/></g><path fill="#c8dcff" d="M 303.015625 519.4375 L 253.257812 519.4375 L 228.378906 562.535156 L 253.257812 605.625 L 303.015625 605.625 L 327.898438 562.535156 Z M 303.015625 519.4375 " fill-opacity="1" fill-rule="nonzero"/><g clip-path="url(#1a89b4a395)"><path fill="#d0feff" d="M 163.007812 696.570312 L 71.980469 696.570312 L 26.464844 617.738281 L 71.980469 538.90625 L 163.007812 538.90625 L 208.523438 617.738281 Z M 75.289062 690.839844 L 159.699219 690.839844 L 201.90625 617.738281 L 159.699219 544.632812 L 75.289062 544.632812 L 33.082031 617.738281 Z M 75.289062 690.839844 " fill-opacity="1" fill-rule="nonzero"/></g><g clip-path="url(#cae2ebc425)"><path fill="#d0feff" d="M 171.167969 519.308594 L 125.808594 519.308594 L 103.132812 480.027344 L 125.808594 440.75 L 171.167969 440.75 L 193.84375 480.027344 Z M 129.117188 513.578125 L 167.859375 513.578125 L 187.230469 480.027344 L 167.859375 446.476562 L 129.117188 446.476562 L 109.746094 480.027344 Z M 129.117188 513.578125 " fill-opacity="1" fill-rule="nonzero"/></g><path fill="#d0feff" d="M 268.46875 587.730469 L 215.402344 587.730469 L 188.867188 541.769531 L 215.402344 495.808594 L 268.46875 495.808594 L 295.003906 541.769531 Z M 218.710938 582 L 265.164062 582 L 288.386719 541.769531 L 265.160156 501.539062 L 218.710938 501.539062 L 195.484375 541.769531 Z M 218.710938 582 " fill-opacity="1" fill-rule="nonzero"/></svg>