<svg xmlns="http://www.w3.org/2000/svg" xmlns:xlink="http://www.w3.org/1999/xlink" width="1920" zoomAndPan="magnify" viewBox="0 0 1440 809.999993" height="1080" preserveAspectRatio="xMidYMid meet" version="1.0"><defs><clipPath id="7bbee782be"><path d="M 558 223.488281 L 882 223.488281 L 882 527 L 558 527 Z M 558 223.488281 " clip-rule="nonzero"/></clipPath><clipPath id="a996181501"><path d="M 676 358 L 882 358 L 882 586.488281 L 676 586.488281 Z M 676 358 " clip-rule="nonzero"/></clipPath><clipPath id="ec9c2e28c8"><path d="M 558 223.488281 L 882 223.488281 L 882 527 L 558 527 Z M 558 223.488281 " clip-rule="nonzero"/></clipPath><clipPath id="b89fd50bd7"><path d="M 494.4375 417 L 602 417 L 602 510 L 494.4375 510 Z M 494.4375 417 " clip-rule="nonzero"/></clipPath><clipPath id="6df27f9b71"><path d="M 621 450 L 679.6875 450 L 679.6875 501 L 621 501 Z M 621 450 " clip-rule="nonzero"/></clipPath><clipPath id="f211b8cdf5"><path d="M 504 462 L 611 462 L 611 553.5 L 504 553.5 Z M 504 462 " clip-rule="nonzero"/></clipPath></defs><path fill="#1a73e8" d="M 622.992188 328.59375 L 882 571.085938 L 882 497.558594 L 622.992188 255.078125 Z M 622.992188 328.59375 " fill-opacity="1" fill-rule="evenodd"/><g clip-path="url(#7bbee782be)"><path fill="#1a73e8" d="M 558 223.515625 L 882 526.867188 L 882 223.515625 Z M 558 223.515625 " fill-opacity="1" fill-rule="evenodd"/></g><g clip-path="url(#a996181501)"><path fill="#8e3ffc" d="M 882 586.484375 L 676.871094 395.890625 L 676.871094 358.308594 L 882 550.359375 Z M 882 586.484375 " fill-opacity="1" fill-rule="evenodd"/></g><g clip-path="url(#ec9c2e28c8)"><path fill="#fac000" d="M 571.207031 223.515625 L 558 223.515625 L 882 526.867188 L 882 514.160156 Z M 571.207031 223.515625 " fill-opacity="1" fill-rule="evenodd"/></g><g clip-path="url(#b89fd50bd7)"><path fill="#bfd6ff" d="M 601.183594 463.742188 L 574.496094 509.960938 L 521.121094 509.960938 L 494.433594 463.742188 L 521.121094 417.519531 L 574.496094 417.519531 Z M 601.183594 463.742188 " fill-opacity="1" fill-rule="nonzero"/></g><g clip-path="url(#6df27f9b71)"><path fill="#bfd6ff" d="M 665.027344 450.765625 L 636.113281 450.765625 L 621.660156 475.804688 L 636.113281 500.839844 L 665.027344 500.839844 L 679.484375 475.804688 Z M 665.027344 450.765625 " fill-opacity="1" fill-rule="nonzero"/></g><g clip-path="url(#f211b8cdf5)"><path fill="#b9e7ed" d="M 583.679688 553.683594 L 530.789062 553.683594 L 504.34375 507.878906 L 530.789062 462.074219 L 583.679688 462.074219 L 610.121094 507.878906 Z M 532.710938 550.351562 L 581.757812 550.351562 L 606.28125 507.878906 L 581.757812 465.402344 L 532.710938 465.402344 L 508.1875 507.878906 Z M 532.710938 550.351562 " fill-opacity="1" fill-rule="nonzero"/></g><path fill="#b9e7ed" d="M 588.417969 450.6875 L 562.066406 450.6875 L 548.890625 427.867188 L 562.066406 405.042969 L 588.417969 405.042969 L 601.59375 427.867188 Z M 563.988281 447.359375 L 586.496094 447.359375 L 597.753906 427.867188 L 586.496094 408.371094 L 563.988281 408.371094 L 552.734375 427.867188 Z M 563.988281 447.359375 " fill-opacity="1" fill-rule="nonzero"/><path fill="#b9e7ed" d="M 644.953125 490.441406 L 614.121094 490.441406 L 598.703125 463.738281 L 614.121094 437.035156 L 644.953125 437.035156 L 660.371094 463.738281 Z M 616.042969 487.113281 L 643.03125 487.113281 L 656.527344 463.738281 L 643.03125 440.363281 L 616.042969 440.363281 L 602.546875 463.738281 Z M 616.042969 487.113281 " fill-opacity="1" fill-rule="nonzero"/></svg>