<svg xmlns="http://www.w3.org/2000/svg" xmlns:xlink="http://www.w3.org/1999/xlink" width="500" zoomAndPan="magnify" viewBox="0 0 375 374.999991" height="500" preserveAspectRatio="xMidYMid meet" version="1.0"><defs><g/></defs><g fill="#ff3131" fill-opacity="1"><g transform="translate(92.333245, 177.24998)"><g><path d="M 8.484375 0.484375 C 6.585938 0.484375 4.84375 0.128906 3.25 -0.578125 C 1.664062 -1.285156 0.367188 -2.289062 -0.640625 -3.59375 L 2.953125 -7.921875 C 4.472656 -5.867188 6.207031 -4.84375 8.15625 -4.84375 C 10.800781 -4.84375 12.125 -6.390625 12.125 -9.484375 L 12.125 -22.796875 L 2.28125 -22.796875 L 2.28125 -28 L 18.5625 -28 L 18.5625 -9.84375 C 18.5625 -6.40625 17.707031 -3.820312 16 -2.09375 C 14.289062 -0.375 11.785156 0.484375 8.484375 0.484375 Z M 8.484375 0.484375 "/></g></g></g><g fill="#000000" fill-opacity="1"><g transform="translate(113.977775, 177.24998)"><g><path d="M 24.5625 -21.515625 L 24.5625 0 L 18.640625 0 L 18.640625 -2.5625 C 17.816406 -1.625 16.828125 -0.910156 15.671875 -0.421875 C 14.523438 0.0664062 13.285156 0.3125 11.953125 0.3125 C 9.128906 0.3125 6.890625 -0.5 5.234375 -2.125 C 3.585938 -3.75 2.765625 -6.160156 2.765625 -9.359375 L 2.765625 -21.515625 L 9 -21.515625 L 9 -10.28125 C 9 -6.8125 10.453125 -5.078125 13.359375 -5.078125 C 14.847656 -5.078125 16.046875 -5.5625 16.953125 -6.53125 C 17.859375 -7.507812 18.3125 -8.957031 18.3125 -10.875 L 18.3125 -21.515625 Z M 24.5625 -21.515625 "/></g></g></g><g fill="#000000" fill-opacity="1"><g transform="translate(141.455049, 177.24998)"><g><path d="M 30.4375 -21.84375 C 33.132812 -21.84375 35.273438 -21.046875 36.859375 -19.453125 C 38.441406 -17.867188 39.234375 -15.488281 39.234375 -12.3125 L 39.234375 0 L 33 0 L 33 -11.359375 C 33 -13.066406 32.644531 -14.335938 31.9375 -15.171875 C 31.226562 -16.015625 30.222656 -16.4375 28.921875 -16.4375 C 27.453125 -16.4375 26.289062 -15.960938 25.4375 -15.015625 C 24.582031 -14.066406 24.15625 -12.660156 24.15625 -10.796875 L 24.15625 0 L 17.921875 0 L 17.921875 -11.359375 C 17.921875 -14.742188 16.5625 -16.4375 13.84375 -16.4375 C 12.40625 -16.4375 11.257812 -15.960938 10.40625 -15.015625 C 9.550781 -14.066406 9.125 -12.660156 9.125 -10.796875 L 9.125 0 L 2.875 0 L 2.875 -21.515625 L 8.84375 -21.515625 L 8.84375 -19.046875 C 9.644531 -19.953125 10.625 -20.644531 11.78125 -21.125 C 12.9375 -21.601562 14.207031 -21.84375 15.59375 -21.84375 C 17.113281 -21.84375 18.488281 -21.539062 19.71875 -20.9375 C 20.945312 -20.34375 21.9375 -19.46875 22.6875 -18.3125 C 23.5625 -19.4375 24.671875 -20.304688 26.015625 -20.921875 C 27.367188 -21.535156 28.84375 -21.84375 30.4375 -21.84375 Z M 30.4375 -21.84375 "/></g></g></g><g fill="#000000" fill-opacity="1"><g transform="translate(183.410883, 177.24998)"><g><path d="M 15.59375 -21.84375 C 17.59375 -21.84375 19.410156 -21.378906 21.046875 -20.453125 C 22.691406 -19.535156 23.976562 -18.242188 24.90625 -16.578125 C 25.84375 -14.910156 26.3125 -12.972656 26.3125 -10.765625 C 26.3125 -8.546875 25.84375 -6.601562 24.90625 -4.9375 C 23.976562 -3.269531 22.691406 -1.976562 21.046875 -1.0625 C 19.410156 -0.144531 17.59375 0.3125 15.59375 0.3125 C 12.851562 0.3125 10.695312 -0.550781 9.125 -2.28125 L 9.125 7.765625 L 2.875 7.765625 L 2.875 -21.515625 L 8.84375 -21.515625 L 8.84375 -19.046875 C 10.382812 -20.910156 12.632812 -21.84375 15.59375 -21.84375 Z M 14.515625 -4.796875 C 16.117188 -4.796875 17.429688 -5.335938 18.453125 -6.421875 C 19.484375 -7.503906 20 -8.953125 20 -10.765625 C 20 -12.578125 19.484375 -14.019531 18.453125 -15.09375 C 17.429688 -16.175781 16.117188 -16.71875 14.515625 -16.71875 C 12.921875 -16.71875 11.609375 -16.175781 10.578125 -15.09375 C 9.554688 -14.019531 9.046875 -12.578125 9.046875 -10.765625 C 9.046875 -8.953125 9.554688 -7.503906 10.578125 -6.421875 C 11.609375 -5.335938 12.921875 -4.796875 14.515625 -4.796875 Z M 14.515625 -4.796875 "/></g></g></g><g fill="#004aad" fill-opacity="1"><g transform="translate(211.009018, 177.24998)"><g><path d="M 10.125 0.3125 C 8.332031 0.3125 6.582031 0.09375 4.875 -0.34375 C 3.164062 -0.78125 1.804688 -1.332031 0.796875 -2 L 2.875 -6.484375 C 3.832031 -5.867188 4.992188 -5.367188 6.359375 -4.984375 C 7.722656 -4.597656 9.054688 -4.40625 10.359375 -4.40625 C 12.992188 -4.40625 14.3125 -5.054688 14.3125 -6.359375 C 14.3125 -6.972656 13.953125 -7.410156 13.234375 -7.671875 C 12.515625 -7.941406 11.410156 -8.171875 9.921875 -8.359375 C 8.160156 -8.628906 6.707031 -8.9375 5.5625 -9.28125 C 4.414062 -9.625 3.421875 -10.234375 2.578125 -11.109375 C 1.734375 -11.992188 1.3125 -13.25 1.3125 -14.875 C 1.3125 -16.238281 1.707031 -17.445312 2.5 -18.5 C 3.289062 -19.550781 4.4375 -20.367188 5.9375 -20.953125 C 7.445312 -21.546875 9.226562 -21.84375 11.28125 -21.84375 C 12.800781 -21.84375 14.3125 -21.675781 15.8125 -21.34375 C 17.320312 -21.007812 18.570312 -20.546875 19.5625 -19.953125 L 17.484375 -15.515625 C 15.585938 -16.585938 13.519531 -17.125 11.28125 -17.125 C 9.945312 -17.125 8.945312 -16.9375 8.28125 -16.5625 C 7.613281 -16.1875 7.28125 -15.707031 7.28125 -15.125 C 7.28125 -14.457031 7.640625 -13.988281 8.359375 -13.71875 C 9.078125 -13.445312 10.222656 -13.191406 11.796875 -12.953125 C 13.554688 -12.660156 14.992188 -12.347656 16.109375 -12.015625 C 17.234375 -11.679688 18.207031 -11.070312 19.03125 -10.1875 C 19.863281 -9.3125 20.28125 -8.085938 20.28125 -6.515625 C 20.28125 -5.179688 19.878906 -3.992188 19.078125 -2.953125 C 18.273438 -1.921875 17.109375 -1.117188 15.578125 -0.546875 C 14.046875 0.0234375 12.226562 0.3125 10.125 0.3125 Z M 10.125 0.3125 "/></g></g></g><g fill="#000000" fill-opacity="1"><g transform="translate(232.255111, 177.24998)"><g><path d="M 16.765625 -1.046875 C 16.148438 -0.585938 15.394531 -0.242188 14.5 -0.015625 C 13.601562 0.203125 12.664062 0.3125 11.6875 0.3125 C 9.125 0.3125 7.140625 -0.335938 5.734375 -1.640625 C 4.335938 -2.941406 3.640625 -4.863281 3.640625 -7.40625 L 3.640625 -16.234375 L 0.3125 -16.234375 L 0.3125 -21.046875 L 3.640625 -21.046875 L 3.640625 -26.28125 L 9.875 -26.28125 L 9.875 -21.046875 L 15.234375 -21.046875 L 15.234375 -16.234375 L 9.875 -16.234375 L 9.875 -7.484375 C 9.875 -6.578125 10.109375 -5.875 10.578125 -5.375 C 11.046875 -4.882812 11.707031 -4.640625 12.5625 -4.640625 C 13.550781 -4.640625 14.390625 -4.90625 15.078125 -5.4375 Z M 16.765625 -1.046875 "/></g></g></g><g fill="#000000" fill-opacity="1"><g transform="translate(249.653379, 177.24998)"><g><path d="M 11.5625 -21.84375 C 14.894531 -21.84375 17.453125 -21.046875 19.234375 -19.453125 C 21.023438 -17.867188 21.921875 -15.476562 21.921875 -12.28125 L 21.921875 0 L 16.078125 0 L 16.078125 -2.6875 C 14.898438 -0.6875 12.710938 0.3125 9.515625 0.3125 C 7.867188 0.3125 6.4375 0.0351562 5.21875 -0.515625 C 4.007812 -1.078125 3.082031 -1.847656 2.4375 -2.828125 C 1.800781 -3.816406 1.484375 -4.941406 1.484375 -6.203125 C 1.484375 -8.203125 2.234375 -9.773438 3.734375 -10.921875 C 5.242188 -12.066406 7.570312 -12.640625 10.71875 -12.640625 L 15.6875 -12.640625 C 15.6875 -14.003906 15.269531 -15.050781 14.4375 -15.78125 C 13.613281 -16.507812 12.375 -16.875 10.71875 -16.875 C 9.570312 -16.875 8.445312 -16.691406 7.34375 -16.328125 C 6.238281 -15.972656 5.296875 -15.488281 4.515625 -14.875 L 2.28125 -19.234375 C 3.457031 -20.066406 4.863281 -20.707031 6.5 -21.15625 C 8.132812 -21.613281 9.820312 -21.84375 11.5625 -21.84375 Z M 11.078125 -3.875 C 12.148438 -3.875 13.097656 -4.117188 13.921875 -4.609375 C 14.742188 -5.109375 15.332031 -5.835938 15.6875 -6.796875 L 15.6875 -9 L 11.40625 -9 C 8.84375 -9 7.5625 -8.160156 7.5625 -6.484375 C 7.5625 -5.679688 7.875 -5.046875 8.5 -4.578125 C 9.125 -4.109375 9.984375 -3.875 11.078125 -3.875 Z M 11.078125 -3.875 "/></g></g></g><g fill="#000000" fill-opacity="1"><g transform="translate(274.330925, 177.24998)"><g><path d="M 8.84375 -18.6875 C 9.582031 -19.71875 10.585938 -20.5 11.859375 -21.03125 C 13.128906 -21.570312 14.585938 -21.84375 16.234375 -21.84375 L 16.234375 -16.078125 C 15.546875 -16.128906 15.082031 -16.15625 14.84375 -16.15625 C 13.050781 -16.15625 11.648438 -15.65625 10.640625 -14.65625 C 9.628906 -13.65625 9.125 -12.15625 9.125 -10.15625 L 9.125 0 L 2.875 0 L 2.875 -21.515625 L 8.84375 -21.515625 Z M 8.84375 -18.6875 "/></g></g></g><g fill="#000000" fill-opacity="1"><g transform="translate(292.169185, 177.24998)"><g><path d="M 16.765625 -1.046875 C 16.148438 -0.585938 15.394531 -0.242188 14.5 -0.015625 C 13.601562 0.203125 12.664062 0.3125 11.6875 0.3125 C 9.125 0.3125 7.140625 -0.335938 5.734375 -1.640625 C 4.335938 -2.941406 3.640625 -4.863281 3.640625 -7.40625 L 3.640625 -16.234375 L 0.3125 -16.234375 L 0.3125 -21.046875 L 3.640625 -21.046875 L 3.640625 -26.28125 L 9.875 -26.28125 L 9.875 -21.046875 L 15.234375 -21.046875 L 15.234375 -16.234375 L 9.875 -16.234375 L 9.875 -7.484375 C 9.875 -6.578125 10.109375 -5.875 10.578125 -5.375 C 11.046875 -4.882812 11.707031 -4.640625 12.5625 -4.640625 C 13.550781 -4.640625 14.390625 -4.90625 15.078125 -5.4375 Z M 16.765625 -1.046875 "/></g></g></g><g fill="#000000" fill-opacity="1"><g transform="translate(142.536367, 208.190288)"><g><path d="M 1.421875 0 L 1.421875 -11.359375 L 5.28125 -11.359375 C 6.488281 -11.359375 7.492188 -11.101562 8.296875 -10.59375 C 9.097656 -10.09375 9.703125 -9.410156 10.109375 -8.546875 C 10.515625 -7.691406 10.71875 -6.742188 10.71875 -5.703125 C 10.71875 -4.546875 10.492188 -3.539062 10.046875 -2.6875 C 9.609375 -1.832031 8.976562 -1.171875 8.15625 -0.703125 C 7.34375 -0.234375 6.382812 0 5.28125 0 Z M 9.59375 -5.703125 C 9.59375 -6.609375 9.425781 -7.410156 9.09375 -8.109375 C 8.757812 -8.816406 8.269531 -9.367188 7.625 -9.765625 C 6.988281 -10.171875 6.207031 -10.375 5.28125 -10.375 L 2.546875 -10.375 L 2.546875 -0.984375 L 5.28125 -0.984375 C 6.21875 -0.984375 7.003906 -1.191406 7.640625 -1.609375 C 8.285156 -2.023438 8.769531 -2.585938 9.09375 -3.296875 C 9.425781 -4.015625 9.59375 -4.816406 9.59375 -5.703125 Z M 9.59375 -5.703125 "/></g></g></g><g fill="#000000" fill-opacity="1"><g transform="translate(153.973614, 208.190288)"><g><path d="M 1.203125 0 L 1.203125 -8.34375 L 2.28125 -8.34375 L 2.28125 0 Z M 1.203125 -10.078125 L 1.203125 -11.6875 L 2.28125 -11.6875 L 2.28125 -10.078125 Z M 1.203125 -10.078125 "/></g></g></g><g fill="#000000" fill-opacity="1"><g transform="translate(157.460777, 208.190288)"><g><path d="M 4.546875 0.109375 C 3.984375 0.109375 3.457031 -0.00390625 2.96875 -0.234375 C 2.488281 -0.472656 2.078125 -0.789062 1.734375 -1.1875 C 1.390625 -1.59375 1.117188 -2.050781 0.921875 -2.5625 C 0.734375 -3.070312 0.640625 -3.597656 0.640625 -4.140625 C 0.640625 -4.734375 0.734375 -5.285156 0.921875 -5.796875 C 1.109375 -6.316406 1.375 -6.78125 1.71875 -7.1875 C 2.0625 -7.59375 2.46875 -7.910156 2.9375 -8.140625 C 3.40625 -8.367188 3.929688 -8.484375 4.515625 -8.484375 C 5.222656 -8.484375 5.84375 -8.300781 6.375 -7.9375 C 6.90625 -7.570312 7.351562 -7.125 7.71875 -6.59375 L 7.71875 -8.34375 L 8.6875 -8.34375 L 8.6875 0.03125 C 8.6875 0.800781 8.5 1.445312 8.125 1.96875 C 7.757812 2.5 7.265625 2.894531 6.640625 3.15625 C 6.023438 3.425781 5.347656 3.5625 4.609375 3.5625 C 3.660156 3.5625 2.890625 3.390625 2.296875 3.046875 C 1.710938 2.710938 1.234375 2.257812 0.859375 1.6875 L 1.53125 1.15625 C 1.863281 1.675781 2.304688 2.0625 2.859375 2.3125 C 3.410156 2.570312 3.992188 2.703125 4.609375 2.703125 C 5.148438 2.703125 5.644531 2.601562 6.09375 2.40625 C 6.550781 2.207031 6.914062 1.910156 7.1875 1.515625 C 7.457031 1.117188 7.59375 0.625 7.59375 0.03125 L 7.59375 -1.609375 C 7.28125 -1.085938 6.84375 -0.671875 6.28125 -0.359375 C 5.726562 -0.046875 5.148438 0.109375 4.546875 0.109375 Z M 4.84375 -0.796875 C 5.175781 -0.796875 5.492188 -0.851562 5.796875 -0.96875 C 6.097656 -1.09375 6.378906 -1.253906 6.640625 -1.453125 C 6.898438 -1.648438 7.113281 -1.867188 7.28125 -2.109375 C 7.445312 -2.359375 7.550781 -2.609375 7.59375 -2.859375 L 7.59375 -5.4375 C 7.4375 -5.84375 7.207031 -6.203125 6.90625 -6.515625 C 6.613281 -6.828125 6.273438 -7.070312 5.890625 -7.25 C 5.515625 -7.425781 5.125 -7.515625 4.71875 -7.515625 C 4.25 -7.515625 3.828125 -7.414062 3.453125 -7.21875 C 3.085938 -7.019531 2.78125 -6.757812 2.53125 -6.4375 C 2.28125 -6.113281 2.085938 -5.75 1.953125 -5.34375 C 1.816406 -4.9375 1.75 -4.53125 1.75 -4.125 C 1.75 -3.675781 1.828125 -3.25 1.984375 -2.84375 C 2.140625 -2.445312 2.359375 -2.09375 2.640625 -1.78125 C 2.929688 -1.46875 3.265625 -1.222656 3.640625 -1.046875 C 4.015625 -0.878906 4.414062 -0.796875 4.84375 -0.796875 Z M 4.84375 -0.796875 "/></g></g></g><g fill="#000000" fill-opacity="1"><g transform="translate(167.346401, 208.190288)"><g><path d="M 1.203125 0 L 1.203125 -8.34375 L 2.28125 -8.34375 L 2.28125 0 Z M 1.203125 -10.078125 L 1.203125 -11.6875 L 2.28125 -11.6875 L 2.28125 -10.078125 Z M 1.203125 -10.078125 "/></g></g></g><g fill="#000000" fill-opacity="1"><g transform="translate(170.833564, 208.190288)"><g><path d="M 5.203125 -0.40625 C 5.117188 -0.375 4.984375 -0.3125 4.796875 -0.21875 C 4.617188 -0.132812 4.398438 -0.0625 4.140625 0 C 3.890625 0.0625 3.613281 0.09375 3.3125 0.09375 C 3 0.09375 2.707031 0.0351562 2.4375 -0.078125 C 2.164062 -0.191406 1.945312 -0.367188 1.78125 -0.609375 C 1.625 -0.847656 1.546875 -1.144531 1.546875 -1.5 L 1.546875 -7.46875 L 0.40625 -7.46875 L 0.40625 -8.34375 L 1.546875 -8.34375 L 1.546875 -11.15625 L 2.640625 -11.15625 L 2.640625 -8.34375 L 4.5625 -8.34375 L 4.5625 -7.46875 L 2.640625 -7.46875 L 2.640625 -1.8125 C 2.660156 -1.507812 2.769531 -1.28125 2.96875 -1.125 C 3.164062 -0.976562 3.390625 -0.90625 3.640625 -0.90625 C 3.941406 -0.90625 4.210938 -0.957031 4.453125 -1.0625 C 4.703125 -1.164062 4.851562 -1.238281 4.90625 -1.28125 Z M 5.203125 -0.40625 "/></g></g></g><g fill="#000000" fill-opacity="1"><g transform="translate(176.192271, 208.190288)"><g><path d="M 0.53125 -2.40625 C 0.53125 -2.925781 0.675781 -3.375 0.96875 -3.75 C 1.269531 -4.125 1.6875 -4.414062 2.21875 -4.625 C 2.75 -4.832031 3.359375 -4.9375 4.046875 -4.9375 C 4.453125 -4.9375 4.875 -4.90625 5.3125 -4.84375 C 5.75 -4.78125 6.140625 -4.6875 6.484375 -4.5625 L 6.484375 -5.265625 C 6.484375 -5.960938 6.273438 -6.519531 5.859375 -6.9375 C 5.441406 -7.351562 4.863281 -7.5625 4.125 -7.5625 C 3.675781 -7.5625 3.234375 -7.476562 2.796875 -7.3125 C 2.367188 -7.15625 1.921875 -6.914062 1.453125 -6.59375 L 1.046875 -7.359375 C 1.585938 -7.734375 2.117188 -8.015625 2.640625 -8.203125 C 3.160156 -8.390625 3.691406 -8.484375 4.234375 -8.484375 C 5.265625 -8.484375 6.078125 -8.1875 6.671875 -7.59375 C 7.265625 -7.007812 7.5625 -6.203125 7.5625 -5.171875 L 7.5625 -1.3125 C 7.5625 -1.164062 7.59375 -1.054688 7.65625 -0.984375 C 7.726562 -0.910156 7.832031 -0.867188 7.96875 -0.859375 L 7.96875 0 C 7.851562 0.0078125 7.75 0.0195312 7.65625 0.03125 C 7.570312 0.0390625 7.507812 0.0390625 7.46875 0.03125 C 7.207031 0.0195312 7.003906 -0.0625 6.859375 -0.21875 C 6.722656 -0.382812 6.648438 -0.554688 6.640625 -0.734375 L 6.625 -1.34375 C 6.25 -0.863281 5.757812 -0.492188 5.15625 -0.234375 C 4.5625 0.0234375 3.957031 0.15625 3.34375 0.15625 C 2.8125 0.15625 2.328125 0.0390625 1.890625 -0.1875 C 1.460938 -0.414062 1.128906 -0.722656 0.890625 -1.109375 C 0.648438 -1.503906 0.53125 -1.9375 0.53125 -2.40625 Z M 6.109375 -1.765625 C 6.222656 -1.910156 6.3125 -2.050781 6.375 -2.1875 C 6.445312 -2.332031 6.484375 -2.457031 6.484375 -2.5625 L 6.484375 -3.78125 C 6.117188 -3.914062 5.738281 -4.019531 5.34375 -4.09375 C 4.957031 -4.164062 4.566406 -4.203125 4.171875 -4.203125 C 3.398438 -4.203125 2.769531 -4.046875 2.28125 -3.734375 C 1.800781 -3.429688 1.5625 -3.015625 1.5625 -2.484375 C 1.5625 -2.171875 1.640625 -1.878906 1.796875 -1.609375 C 1.960938 -1.335938 2.195312 -1.113281 2.5 -0.9375 C 2.8125 -0.757812 3.175781 -0.671875 3.59375 -0.671875 C 4.125 -0.671875 4.613281 -0.769531 5.0625 -0.96875 C 5.519531 -1.175781 5.867188 -1.441406 6.109375 -1.765625 Z M 6.109375 -1.765625 "/></g></g></g><g fill="#000000" fill-opacity="1"><g transform="translate(184.910174, 208.190288)"><g><path d="M 1.25 -11.6875 L 2.34375 -11.6875 L 2.34375 -1.890625 C 2.34375 -1.472656 2.414062 -1.195312 2.5625 -1.0625 C 2.707031 -0.9375 2.890625 -0.875 3.109375 -0.875 C 3.296875 -0.875 3.484375 -0.894531 3.671875 -0.9375 C 3.867188 -0.988281 4.035156 -1.035156 4.171875 -1.078125 L 4.375 -0.1875 C 4.164062 -0.101562 3.914062 -0.0351562 3.625 0.015625 C 3.332031 0.0664062 3.078125 0.09375 2.859375 0.09375 C 2.367188 0.09375 1.976562 -0.046875 1.6875 -0.328125 C 1.394531 -0.617188 1.25 -1.015625 1.25 -1.515625 Z M 1.25 -11.6875 "/></g></g></g><g fill="#000000" fill-opacity="1"><g transform="translate(188.781206, 208.190288)"><g/></g></g><g fill="#000000" fill-opacity="1"><g transform="translate(192.860224, 208.190288)"><g><path d="M 3.9375 0.15625 C 3.25 0.15625 2.613281 0.046875 2.03125 -0.171875 C 1.445312 -0.398438 0.941406 -0.742188 0.515625 -1.203125 L 0.953125 -1.96875 C 1.421875 -1.53125 1.894531 -1.210938 2.375 -1.015625 C 2.851562 -0.816406 3.359375 -0.71875 3.890625 -0.71875 C 4.535156 -0.71875 5.0625 -0.847656 5.46875 -1.109375 C 5.875 -1.367188 6.078125 -1.742188 6.078125 -2.234375 C 6.078125 -2.566406 5.976562 -2.820312 5.78125 -3 C 5.582031 -3.175781 5.300781 -3.316406 4.9375 -3.421875 C 4.570312 -3.535156 4.128906 -3.660156 3.609375 -3.796875 C 3.035156 -3.953125 2.550781 -4.117188 2.15625 -4.296875 C 1.769531 -4.472656 1.476562 -4.695312 1.28125 -4.96875 C 1.082031 -5.238281 0.984375 -5.59375 0.984375 -6.03125 C 0.984375 -6.570312 1.117188 -7.019531 1.390625 -7.375 C 1.671875 -7.738281 2.046875 -8.015625 2.515625 -8.203125 C 2.992188 -8.390625 3.523438 -8.484375 4.109375 -8.484375 C 4.753906 -8.484375 5.320312 -8.378906 5.8125 -8.171875 C 6.300781 -7.972656 6.703125 -7.691406 7.015625 -7.328125 L 6.484375 -6.59375 C 6.179688 -6.9375 5.820312 -7.1875 5.40625 -7.34375 C 5 -7.507812 4.546875 -7.59375 4.046875 -7.59375 C 3.703125 -7.59375 3.375 -7.546875 3.0625 -7.453125 C 2.757812 -7.367188 2.507812 -7.222656 2.3125 -7.015625 C 2.113281 -6.804688 2.015625 -6.519531 2.015625 -6.15625 C 2.015625 -5.863281 2.085938 -5.632812 2.234375 -5.46875 C 2.390625 -5.300781 2.613281 -5.160156 2.90625 -5.046875 C 3.207031 -4.929688 3.578125 -4.8125 4.015625 -4.6875 C 4.640625 -4.519531 5.1875 -4.347656 5.65625 -4.171875 C 6.132812 -3.992188 6.5 -3.765625 6.75 -3.484375 C 7.007812 -3.210938 7.140625 -2.820312 7.140625 -2.3125 C 7.140625 -1.539062 6.84375 -0.9375 6.25 -0.5 C 5.664062 -0.0625 4.894531 0.15625 3.9375 0.15625 Z M 3.9375 0.15625 "/></g></g></g><g fill="#000000" fill-opacity="1"><g transform="translate(200.58637, 208.190288)"><g><path d="M 4.75 0.15625 C 4.15625 0.15625 3.601562 0.0390625 3.09375 -0.1875 C 2.59375 -0.414062 2.15625 -0.726562 1.78125 -1.125 C 1.414062 -1.53125 1.128906 -1.988281 0.921875 -2.5 C 0.722656 -3.019531 0.625 -3.566406 0.625 -4.140625 C 0.625 -4.742188 0.722656 -5.300781 0.921875 -5.8125 C 1.128906 -6.332031 1.421875 -6.789062 1.796875 -7.1875 C 2.171875 -7.59375 2.609375 -7.910156 3.109375 -8.140625 C 3.617188 -8.367188 4.171875 -8.484375 4.765625 -8.484375 C 5.359375 -8.484375 5.90625 -8.367188 6.40625 -8.140625 C 6.914062 -7.910156 7.351562 -7.59375 7.71875 -7.1875 C 8.09375 -6.789062 8.378906 -6.332031 8.578125 -5.8125 C 8.785156 -5.300781 8.890625 -4.742188 8.890625 -4.140625 C 8.890625 -3.566406 8.785156 -3.019531 8.578125 -2.5 C 8.378906 -1.988281 8.097656 -1.53125 7.734375 -1.125 C 7.367188 -0.726562 6.929688 -0.414062 6.421875 -0.1875 C 5.910156 0.0390625 5.351562 0.15625 4.75 0.15625 Z M 1.734375 -4.125 C 1.734375 -3.507812 1.867188 -2.945312 2.140625 -2.4375 C 2.410156 -1.9375 2.773438 -1.535156 3.234375 -1.234375 C 3.691406 -0.941406 4.195312 -0.796875 4.75 -0.796875 C 5.300781 -0.796875 5.804688 -0.945312 6.265625 -1.25 C 6.722656 -1.550781 7.09375 -1.957031 7.375 -2.46875 C 7.65625 -2.988281 7.796875 -3.550781 7.796875 -4.15625 C 7.796875 -4.78125 7.65625 -5.347656 7.375 -5.859375 C 7.09375 -6.367188 6.722656 -6.769531 6.265625 -7.0625 C 5.804688 -7.363281 5.300781 -7.515625 4.75 -7.515625 C 4.195312 -7.515625 3.691406 -7.359375 3.234375 -7.046875 C 2.785156 -6.742188 2.421875 -6.335938 2.140625 -5.828125 C 1.867188 -5.328125 1.734375 -4.757812 1.734375 -4.125 Z M 1.734375 -4.125 "/></g></g></g><g fill="#000000" fill-opacity="1"><g transform="translate(210.104088, 208.190288)"><g><path d="M 1.25 -11.6875 L 2.34375 -11.6875 L 2.34375 -1.890625 C 2.34375 -1.472656 2.414062 -1.195312 2.5625 -1.0625 C 2.707031 -0.9375 2.890625 -0.875 3.109375 -0.875 C 3.296875 -0.875 3.484375 -0.894531 3.671875 -0.9375 C 3.867188 -0.988281 4.035156 -1.035156 4.171875 -1.078125 L 4.375 -0.1875 C 4.164062 -0.101562 3.914062 -0.0351562 3.625 0.015625 C 3.332031 0.0664062 3.078125 0.09375 2.859375 0.09375 C 2.367188 0.09375 1.976562 -0.046875 1.6875 -0.328125 C 1.394531 -0.617188 1.25 -1.015625 1.25 -1.515625 Z M 1.25 -11.6875 "/></g></g></g><g fill="#000000" fill-opacity="1"><g transform="translate(214.45504, 208.190288)"><g><path d="M 1.125 -3.4375 L 1.125 -8.34375 L 2.203125 -8.34375 L 2.203125 -3.625 C 2.203125 -2.675781 2.363281 -1.96875 2.6875 -1.5 C 3.019531 -1.03125 3.503906 -0.796875 4.140625 -0.796875 C 4.566406 -0.796875 4.976562 -0.890625 5.375 -1.078125 C 5.78125 -1.265625 6.132812 -1.53125 6.4375 -1.875 C 6.75 -2.226562 6.988281 -2.632812 7.15625 -3.09375 L 7.15625 -8.34375 L 8.234375 -8.34375 L 8.234375 -1.3125 C 8.234375 -1.164062 8.265625 -1.054688 8.328125 -0.984375 C 8.398438 -0.910156 8.5 -0.867188 8.625 -0.859375 L 8.625 0 C 8.5 0.0078125 8.394531 0.015625 8.3125 0.015625 C 8.238281 0.0234375 8.171875 0.03125 8.109375 0.03125 C 7.898438 0.0078125 7.71875 -0.0703125 7.5625 -0.21875 C 7.40625 -0.375 7.320312 -0.554688 7.3125 -0.765625 L 7.28125 -1.890625 C 6.914062 -1.242188 6.421875 -0.738281 5.796875 -0.375 C 5.171875 -0.0195312 4.5 0.15625 3.78125 0.15625 C 2.90625 0.15625 2.242188 -0.144531 1.796875 -0.75 C 1.347656 -1.351562 1.125 -2.25 1.125 -3.4375 Z M 1.125 -3.4375 "/></g></g></g><g fill="#000000" fill-opacity="1"><g transform="translate(223.95676, 208.190288)"><g><path d="M 5.203125 -0.40625 C 5.117188 -0.375 4.984375 -0.3125 4.796875 -0.21875 C 4.617188 -0.132812 4.398438 -0.0625 4.140625 0 C 3.890625 0.0625 3.613281 0.09375 3.3125 0.09375 C 3 0.09375 2.707031 0.0351562 2.4375 -0.078125 C 2.164062 -0.191406 1.945312 -0.367188 1.78125 -0.609375 C 1.625 -0.847656 1.546875 -1.144531 1.546875 -1.5 L 1.546875 -7.46875 L 0.40625 -7.46875 L 0.40625 -8.34375 L 1.546875 -8.34375 L 1.546875 -11.15625 L 2.640625 -11.15625 L 2.640625 -8.34375 L 4.5625 -8.34375 L 4.5625 -7.46875 L 2.640625 -7.46875 L 2.640625 -1.8125 C 2.660156 -1.507812 2.769531 -1.28125 2.96875 -1.125 C 3.164062 -0.976562 3.390625 -0.90625 3.640625 -0.90625 C 3.941406 -0.90625 4.210938 -0.957031 4.453125 -1.0625 C 4.703125 -1.164062 4.851562 -1.238281 4.90625 -1.28125 Z M 5.203125 -0.40625 "/></g></g></g><g fill="#000000" fill-opacity="1"><g transform="translate(229.315467, 208.190288)"><g><path d="M 1.203125 0 L 1.203125 -8.34375 L 2.28125 -8.34375 L 2.28125 0 Z M 1.203125 -10.078125 L 1.203125 -11.6875 L 2.28125 -11.6875 L 2.28125 -10.078125 Z M 1.203125 -10.078125 "/></g></g></g><g fill="#000000" fill-opacity="1"><g transform="translate(232.80263, 208.190288)"><g><path d="M 4.75 0.15625 C 4.15625 0.15625 3.601562 0.0390625 3.09375 -0.1875 C 2.59375 -0.414062 2.15625 -0.726562 1.78125 -1.125 C 1.414062 -1.53125 1.128906 -1.988281 0.921875 -2.5 C 0.722656 -3.019531 0.625 -3.566406 0.625 -4.140625 C 0.625 -4.742188 0.722656 -5.300781 0.921875 -5.8125 C 1.128906 -6.332031 1.421875 -6.789062 1.796875 -7.1875 C 2.171875 -7.59375 2.609375 -7.910156 3.109375 -8.140625 C 3.617188 -8.367188 4.171875 -8.484375 4.765625 -8.484375 C 5.359375 -8.484375 5.90625 -8.367188 6.40625 -8.140625 C 6.914062 -7.910156 7.351562 -7.59375 7.71875 -7.1875 C 8.09375 -6.789062 8.378906 -6.332031 8.578125 -5.8125 C 8.785156 -5.300781 8.890625 -4.742188 8.890625 -4.140625 C 8.890625 -3.566406 8.785156 -3.019531 8.578125 -2.5 C 8.378906 -1.988281 8.097656 -1.53125 7.734375 -1.125 C 7.367188 -0.726562 6.929688 -0.414062 6.421875 -0.1875 C 5.910156 0.0390625 5.351562 0.15625 4.75 0.15625 Z M 1.734375 -4.125 C 1.734375 -3.507812 1.867188 -2.945312 2.140625 -2.4375 C 2.410156 -1.9375 2.773438 -1.535156 3.234375 -1.234375 C 3.691406 -0.941406 4.195312 -0.796875 4.75 -0.796875 C 5.300781 -0.796875 5.804688 -0.945312 6.265625 -1.25 C 6.722656 -1.550781 7.09375 -1.957031 7.375 -2.46875 C 7.65625 -2.988281 7.796875 -3.550781 7.796875 -4.15625 C 7.796875 -4.78125 7.65625 -5.347656 7.375 -5.859375 C 7.09375 -6.367188 6.722656 -6.769531 6.265625 -7.0625 C 5.804688 -7.363281 5.300781 -7.515625 4.75 -7.515625 C 4.195312 -7.515625 3.691406 -7.359375 3.234375 -7.046875 C 2.785156 -6.742188 2.421875 -6.335938 2.140625 -5.828125 C 1.867188 -5.328125 1.734375 -4.757812 1.734375 -4.125 Z M 1.734375 -4.125 "/></g></g></g><g fill="#000000" fill-opacity="1"><g transform="translate(242.320349, 208.190288)"><g><path d="M 8.203125 0 L 7.125 0 L 7.125 -4.65625 C 7.125 -5.632812 6.976562 -6.347656 6.6875 -6.796875 C 6.394531 -7.253906 5.941406 -7.484375 5.328125 -7.484375 C 4.898438 -7.484375 4.476562 -7.378906 4.0625 -7.171875 C 3.644531 -6.960938 3.28125 -6.679688 2.96875 -6.328125 C 2.65625 -5.972656 2.425781 -5.566406 2.28125 -5.109375 L 2.28125 0 L 1.203125 0 L 1.203125 -8.34375 L 2.1875 -8.34375 L 2.1875 -6.453125 C 2.414062 -6.859375 2.707031 -7.210938 3.0625 -7.515625 C 3.425781 -7.816406 3.835938 -8.050781 4.296875 -8.21875 C 4.753906 -8.394531 5.234375 -8.484375 5.734375 -8.484375 C 6.191406 -8.484375 6.578125 -8.394531 6.890625 -8.21875 C 7.210938 -8.050781 7.46875 -7.8125 7.65625 -7.5 C 7.851562 -7.1875 7.992188 -6.804688 8.078125 -6.359375 C 8.160156 -5.921875 8.203125 -5.425781 8.203125 -4.875 Z M 8.203125 0 "/></g></g></g><g fill="#000000" fill-opacity="1"><g transform="translate(251.646105, 208.190288)"><g><path d="M 3.9375 0.15625 C 3.25 0.15625 2.613281 0.046875 2.03125 -0.171875 C 1.445312 -0.398438 0.941406 -0.742188 0.515625 -1.203125 L 0.953125 -1.96875 C 1.421875 -1.53125 1.894531 -1.210938 2.375 -1.015625 C 2.851562 -0.816406 3.359375 -0.71875 3.890625 -0.71875 C 4.535156 -0.71875 5.0625 -0.847656 5.46875 -1.109375 C 5.875 -1.367188 6.078125 -1.742188 6.078125 -2.234375 C 6.078125 -2.566406 5.976562 -2.820312 5.78125 -3 C 5.582031 -3.175781 5.300781 -3.316406 4.9375 -3.421875 C 4.570312 -3.535156 4.128906 -3.660156 3.609375 -3.796875 C 3.035156 -3.953125 2.550781 -4.117188 2.15625 -4.296875 C 1.769531 -4.472656 1.476562 -4.695312 1.28125 -4.96875 C 1.082031 -5.238281 0.984375 -5.59375 0.984375 -6.03125 C 0.984375 -6.570312 1.117188 -7.019531 1.390625 -7.375 C 1.671875 -7.738281 2.046875 -8.015625 2.515625 -8.203125 C 2.992188 -8.390625 3.523438 -8.484375 4.109375 -8.484375 C 4.753906 -8.484375 5.320312 -8.378906 5.8125 -8.171875 C 6.300781 -7.972656 6.703125 -7.691406 7.015625 -7.328125 L 6.484375 -6.59375 C 6.179688 -6.9375 5.820312 -7.1875 5.40625 -7.34375 C 5 -7.507812 4.546875 -7.59375 4.046875 -7.59375 C 3.703125 -7.59375 3.375 -7.546875 3.0625 -7.453125 C 2.757812 -7.367188 2.507812 -7.222656 2.3125 -7.015625 C 2.113281 -6.804688 2.015625 -6.519531 2.015625 -6.15625 C 2.015625 -5.863281 2.085938 -5.632812 2.234375 -5.46875 C 2.390625 -5.300781 2.613281 -5.160156 2.90625 -5.046875 C 3.207031 -4.929688 3.578125 -4.8125 4.015625 -4.6875 C 4.640625 -4.519531 5.1875 -4.347656 5.65625 -4.171875 C 6.132812 -3.992188 6.5 -3.765625 6.75 -3.484375 C 7.007812 -3.210938 7.140625 -2.820312 7.140625 -2.3125 C 7.140625 -1.539062 6.84375 -0.9375 6.25 -0.5 C 5.664062 -0.0625 4.894531 0.15625 3.9375 0.15625 Z M 3.9375 0.15625 "/></g></g></g><path stroke-linecap="butt" transform="matrix(0.75, 0.00000694946, -0.00000694946, 0.75, 211.432287, 188.787556)" fill="none" stroke-linejoin="miter" d="M 0.0017614 2.002008 L 130.871562 2.000796 " stroke="#004aad" stroke-width="4" stroke-opacity="1" stroke-miterlimit="4"/><path stroke-linecap="butt" transform="matrix(0.75, -0.000080896, 0.000080896, 0.75, 194.468005, 188.79028)" fill="none" stroke-linejoin="miter" d="M 0.000777346 1.998376 L 22.490362 2.000802 " stroke="#00bf63" stroke-width="4" stroke-opacity="1" stroke-miterlimit="4"/><path stroke-linecap="butt" transform="matrix(0.75, -0.0000133583, 0.0000133583, 0.75, 92.333216, 188.787556)" fill="none" stroke-linejoin="miter" d="M -0.00161537 2.002008 L 136.180685 1.999225 " stroke="#ff3131" stroke-width="4" stroke-opacity="1" stroke-miterlimit="4"/></svg>